<svg width="341" height="183" viewBox="0 0 341 183" fill="none" xmlns="http://www.w3.org/2000/svg">
<g clip-path="url(#clip0_215_8147)">
<path d="M92.1559 100.142C90.4772 97.2869 101.044 83.2641 98.6406 69.2372C97.4684 62.3844 83.532 46.9635 83.532 46.9635C86.1527 44.3384 86.1987 42.548 86.1987 42.548C85.8429 36.8888 73.8489 31.5134 71.3413 32.0893C68.8337 32.6653 67.6699 35.3446 67.6699 35.3446C32.2029 27.0061 21.9715 45.6781 21.9715 45.6781C20.2425 42.4854 17.9484 42.1974 16.391 42.5521C12.4182 43.4536 6.60748 50.97 5.41018 56.7419C4.67338 60.2893 11.4553 65.1848 11.4553 65.1848C11.7735 73.0183 7.81315 80.9228 8.36994 88.8566C8.9058 96.4689 21.8835 102.583 21.243 105.208C8.77183 156.458 8.80951 186.181 15.0849 203.81C15.0849 203.81 -3.49005 251.934 0.541428 261.641C15.9975 263.478 30.2521 267.559 45.9007 268.603C49.7187 259.179 56.7979 233.9 67.7871 227.991C74.6946 229.431 62.9602 258.787 58.2087 270.272C71.2576 270.848 101.835 264.4 101.412 264.225C121.08 263.661 118.831 196.698 118.831 196.698C121.084 164.133 113.042 135.666 92.1601 100.137L92.1559 100.142Z" fill="#66B1FF"/>
<path d="M169.809 73.5252C156.057 80.8079 152.875 84.8436 152.875 84.8436C149.279 81.4965 140.907 76.2755 136.569 79.5141C127.184 86.5171 140.3 94.5677 144.059 98.3196C141.02 143.259 92.1562 100.82 92.1562 100.82L109.642 147.023C146.245 170.137 161.391 162.992 182.9 114.145C182.9 114.145 195.488 113.085 195.112 104.521C194.886 99.4465 191.959 98.015 191.959 98.015C191.959 98.015 194.212 93.8499 192.072 88.704C189.895 83.4705 182.854 84.0548 182.854 84.0548C182.854 84.0548 201.383 77.3982 196.74 67.9703C193.316 61.0174 173.715 71.4594 169.813 73.5252H169.809Z" fill="#66B1FF"/>
<g clip-path="url(#clip1_215_8147)">
<path d="M20.4231 108.242C20.4231 108.242 -7.80363 138.743 -23.8918 158.371C-36.3463 173.567 -45.4662 184.595 -32.6684 201.318C-29.1686 205.892 -22.0853 210.425 -22.0853 210.425L12.61 179.94V158.371C12.61 158.371 19.77 151.27 22.3614 132.623C23.1149 127.194 20.4231 108.242 20.4231 108.242Z" fill="#66B1FF"/>
</g>
<path d="M77.7228 67.5205C75.0142 62.5458 54.9992 67.0281 55.0243 67.1491C54.9992 67.0322 34.62 70.8259 33.8287 76.8524C33.3473 80.5208 32.2672 87.6324 34.8293 91.5262C37.6634 95.8332 54.9155 102.436 62.4174 100.695C69.6599 99.0885 79.6109 87.2025 80.2974 82.0984C80.917 77.4825 79.4937 70.7717 77.7186 67.5164L77.7228 67.5205Z" fill="white"/>
<path d="M33.0663 53.4655C34.0668 52.4388 37.6043 49.5967 44.7923 50.9323C46.2826 51.2077 47.9153 53.6533 45.8012 55.3895C43.955 56.9044 35.1846 57.8476 33.7235 57.3677C32.229 56.8752 31.7099 54.8511 33.0663 53.4613V53.4655Z" fill="#0073E4"/>
<path d="M66.9646 39.4823C65.6375 38.7269 61.2251 36.853 54.8451 40.3754C53.5222 41.1058 52.844 44.1106 55.494 45.2667C57.809 46.2766 66.5292 44.6323 67.7517 43.7016C69.0034 42.7459 68.7648 40.509 66.9646 39.4865V39.4823Z" fill="#0073E4"/>
<path d="M56.0906 68.3675C56.0906 68.3675 43.3431 71.0134 44.6576 74.8989C45.9721 78.7843 55.6259 83.4544 59.088 82.7366C63.7977 81.518 69.5372 73.9014 69.1855 69.8115C68.8339 65.7257 56.0906 68.3675 56.0906 68.3675Z" fill="#0073E4"/>
<path d="M48.3681 63.8822C45.739 61.4575 41.3601 59.5627 38.1952 62.0835C36.6211 63.3355 35.7545 65.2762 35.1601 67.1459C34.8963 67.9722 36.1983 68.3269 36.462 67.5048C37.2239 65.1009 38.6975 62.263 41.561 62.2129C43.3402 62.1837 45.0399 63.0684 46.4758 64.0867C46.84 64.3455 47.0284 64.4748 47.4178 64.8338C48.0541 65.4222 49.0086 64.4707 48.3722 63.8822H48.3681Z" fill="#0073E4"/>
<path d="M64.2172 63.2465C67.3963 63.2465 69.9735 60.6773 69.9735 57.508C69.9735 54.3387 67.3963 51.7695 64.2172 51.7695C61.0381 51.7695 58.4609 54.3387 58.4609 57.508C58.4609 60.6773 61.0381 63.2465 64.2172 63.2465Z" fill="white"/>
<path d="M64.213 61.2622C66.2939 61.2622 67.9808 59.5805 67.9808 57.5061C67.9808 55.4317 66.2939 53.75 64.213 53.75C62.1322 53.75 60.4453 55.4317 60.4453 57.5061C60.4453 59.5805 62.1322 61.2622 64.213 61.2622Z" fill="#3B3B3B"/>
<path d="M57.5781 65.8739L57.6074 63.495C57.6074 63.495 58.4656 61.1746 63.7739 60.3316C67.5375 59.7348 70.5894 61.546 70.5894 61.546L70.8489 64.8347L57.5781 65.8698V65.8739Z" fill="#66B1FF"/>
<path d="M67.1662 85.0898C64.4157 83.1325 58.6511 86.7926 55.302 86.3251C51.0737 85.7367 44.4551 78.8881 40.4152 80.2695C38.096 81.0625 36.5722 86.6883 37.5518 88.9252C39.5905 93.5703 49.1983 96.308 54.2847 96.308C57.1524 96.308 62.5318 95.4149 64.8636 93.0862C66.4796 91.4752 69.0249 86.4086 67.1662 85.0856V85.0898Z" fill="white"/>
<path d="M54.2825 96.9324C49.4305 96.9324 39.2116 94.2698 36.976 89.174C36.235 87.4879 36.7374 84.5999 37.6124 82.6133C38.098 81.5115 38.9436 80.1092 40.2121 79.6752C42.837 78.7737 46.1861 80.8313 49.4221 82.8178C51.5488 84.1241 53.7466 85.4721 55.3877 85.7016C56.6603 85.8769 58.4647 85.3553 60.2104 84.8503C62.9022 84.0699 65.682 83.2644 67.5282 84.5748C67.8966 84.8336 68.3487 85.3511 68.4282 86.3277C68.6166 88.5938 66.6741 92.1621 65.3052 93.5269C62.8185 96.0059 57.2255 96.9324 54.2825 96.9324ZM41.5894 80.7102C41.2461 80.7102 40.9196 80.7561 40.6182 80.8605C39.9735 81.0816 39.2953 81.9038 38.7594 83.1183C37.897 85.0756 37.6166 87.5171 38.1273 88.6731C39.9735 92.8841 49.0746 95.6804 54.2825 95.6804C57.2255 95.6804 62.3161 94.7372 64.4177 92.6421C65.615 91.4485 67.3272 88.1932 67.1807 86.432C67.1472 86.0272 67.0216 85.7517 66.7997 85.5973C65.4475 84.6374 62.965 85.3595 60.562 86.0522C58.6028 86.6198 56.7524 87.1582 55.216 86.9412C53.3113 86.6783 51.105 85.3219 48.7649 83.882C46.2154 82.317 43.5905 80.706 41.5936 80.706L41.5894 80.7102Z" fill="#0073E4"/>
<path d="M41.2523 92.9235C41.1518 92.9235 41.0513 92.8985 40.955 92.8484C40.6494 92.6856 40.5364 92.3059 40.6997 92.0012L46.054 82.0517C46.2173 81.747 46.5983 81.6343 46.9039 81.7971C47.2095 81.9599 47.3225 82.3397 47.1592 82.6443L41.8049 92.5938C41.6918 92.8025 41.4742 92.9235 41.2523 92.9235Z" fill="#0073E4"/>
<path d="M50.2906 96.181C50.2446 96.181 50.1985 96.1768 50.1525 96.1643C49.8134 96.0892 49.604 95.7511 49.6794 95.4173L51.9149 85.5429C51.9903 85.2048 52.3252 84.992 52.6643 85.0713C53.0034 85.1464 53.2127 85.4845 53.1373 85.8183L50.9018 95.6927C50.8348 95.9849 50.5753 96.181 50.2906 96.181Z" fill="#0073E4"/>
<path d="M61.5963 95.2543C61.2823 95.2543 61.0102 95.0164 60.9725 94.6993L59.9804 85.9935C59.9427 85.6512 60.1897 85.3382 60.533 85.3007C60.8762 85.2631 61.1902 85.5093 61.2279 85.8515L62.2201 94.5574C62.2577 94.8996 62.0107 95.2126 61.6675 95.2501C61.6423 95.2501 61.6214 95.2501 61.5963 95.2501V95.2543Z" fill="#0073E4"/>
<path d="M17.6797 63.2441L84.7495 45.582L83.8955 49.7931L77.7583 51.7671C77.7583 51.7671 80.8143 63.1439 68.5441 65.8733C57.5758 68.3148 54.9342 57.564 54.9342 57.564L50.3083 58.6783C50.3083 58.6783 53.5611 69.5919 42.2453 72.5926C29.8285 75.8813 27.2958 65.1806 27.2958 65.1806L19.7226 67.5302L17.6839 63.2441H17.6797Z" fill="#333238"/>
<path d="M24.5938 69.5535L26.4274 69.2572C27.9303 69.0152 29.1318 67.9509 29.4667 66.5612L30.3165 63.043L31.137 66.653C31.4468 68.0093 32.573 69.0736 34.0173 69.3741L36.123 69.8123L33.4856 70.4341C32.3134 70.7096 31.4092 71.586 31.158 72.692L30.3207 76.3646L29.6006 73.005C29.3034 71.6236 28.2024 70.5092 26.7539 70.1253L24.5979 69.5535H24.5938Z" fill="white"/>
<path d="M71.6484 48.2505L72.6155 48.1003C73.4067 47.975 74.0388 47.4242 74.2147 46.7063L74.6626 44.8867L75.0938 46.7522C75.2571 47.4534 75.8474 48.0043 76.6093 48.1587L77.7187 48.3841L76.3288 48.7054C75.7092 48.8473 75.2362 49.3022 75.1022 49.874L74.6626 51.7729L74.2817 50.0367C74.1268 49.3231 73.5449 48.7472 72.7829 48.5468L71.6484 48.2505Z" fill="white"/>
<path opacity="0.5" d="M63.4868 66.0708C63.3529 65.9497 68.7073 49.7818 68.7073 49.7818L71.6419 48.9805L65.1698 66.2335C65.1698 66.2335 63.8343 66.3879 63.4868 66.0708Z" fill="white"/>
<path opacity="0.5" d="M67.9812 66.1612L67.3281 66.1362L73.5449 48.5284L74.311 48.3281L67.9812 66.1612Z" fill="white"/>
<path d="M169.809 73.3143C156.057 80.5969 152.875 84.6327 152.875 84.6327C149.279 81.2856 140.907 76.0646 136.569 79.3032C127.184 86.3062 140.3 94.3568 144.059 98.1087C141.02 143.048 92.1562 100.609 92.1562 100.609L114.27 143.244C146.941 168.222 158.025 167.198 182.9 113.934C182.9 113.934 195.488 112.874 195.112 104.31C194.886 99.2356 191.959 97.804 191.959 97.804C191.959 97.804 194.212 93.639 192.072 88.4931C189.895 83.2596 182.854 83.8439 182.854 83.8439C182.854 83.8439 201.383 77.1872 196.74 67.7594C193.316 60.8064 173.715 71.2484 169.813 73.3143H169.809Z" fill="url(#paint0_linear_215_8147)"/>
<path d="M163.573 95.4414C163.573 95.4414 171.654 91.4803 175.414 93.617C182.937 98.8415 180.294 112.134 164.938 111.569C159.534 111.369 154.894 109.408 153.244 101.959C152.26 96.5195 155.956 92.5194 163.573 95.4414Z" fill="#66B1FF"/>
<path d="M169.809 73.3143C156.056 80.5969 152.875 84.6327 152.875 84.6327C149.279 81.2856 140.906 76.0646 136.569 79.3032C127.183 86.3062 140.299 94.3568 144.058 98.1087C141.019 143.048 150.195 88.4931 150.195 88.4931L167.889 92.0221C166.785 97.3472 164.994 99.078 170.785 103.568C165.637 114.473 175.611 116.076 182.899 113.934C182.899 113.934 195.488 112.874 195.111 104.31C194.885 99.2356 191.959 97.804 191.959 97.804C191.959 97.804 194.211 93.639 192.072 88.4931C189.895 83.2596 182.853 83.8439 182.853 83.8439C182.853 83.8439 201.382 77.1872 196.74 67.7594C193.315 60.8064 173.715 71.2484 169.813 73.3143H169.809Z" fill="url(#paint1_linear_215_8147)"/>
<path d="M26.7146 137.232C43.8638 119.317 62.6859 135.112 64.2016 136.441C65.722 135.112 84.5394 119.317 101.689 137.232C120.721 157.112 103.381 197.482 97.4657 206.985C91.5507 216.489 79.8446 231.92 64.03 232.39C48.2106 231.92 36.8525 216.494 30.9375 206.985C25.0225 197.482 7.68266 157.117 26.7146 137.232Z" fill="white"/>
<path d="M175.886 115.781C175.886 115.781 175.848 115.781 175.831 115.781C175.614 115.765 170.464 115.281 169.058 111.124C167.831 107.501 168.869 105.294 169.426 104.108C169.523 103.908 169.636 103.666 169.677 103.524C166.663 100.807 165.407 98.0819 165.939 95.4276C167.061 89.8185 175.794 86.7302 176.162 86.605C176.489 86.4923 176.849 86.6634 176.962 86.9889C177.075 87.3144 176.903 87.6733 176.577 87.786C176.493 87.8152 168.149 90.7701 167.17 95.6738C166.726 97.8899 167.886 100.248 170.611 102.677C171.231 103.228 170.875 103.979 170.565 104.638C170.05 105.736 169.188 107.572 170.251 110.719C171.398 114.108 175.894 114.525 175.94 114.529C176.288 114.559 176.543 114.863 176.514 115.206C176.484 115.531 176.212 115.777 175.89 115.777L175.886 115.781Z" fill="#0073E4"/>
<path d="M173.944 104.375C171.575 104.375 170.072 103.774 169.95 103.724C169.628 103.59 169.477 103.223 169.611 102.906C169.745 102.589 170.11 102.434 170.432 102.568C170.507 102.597 175.845 104.68 182.355 100.414C182.644 100.226 183.033 100.306 183.225 100.594C183.418 100.882 183.334 101.27 183.045 101.462C179.504 103.782 176.301 104.379 173.948 104.379L173.944 104.375Z" fill="#0073E4"/>
</g>
<g clip-path="url(#clip2_215_8147)">
<path d="M92.1559 100.142C90.4772 97.2869 101.044 83.2641 98.6406 69.2372C97.4684 62.3844 83.532 46.9635 83.532 46.9635C86.1527 44.3384 86.1987 42.548 86.1987 42.548C85.8429 36.8888 73.8489 31.5134 71.3413 32.0893C68.8337 32.6653 67.6699 35.3446 67.6699 35.3446C32.2029 27.0061 21.9715 45.6781 21.9715 45.6781C20.2425 42.4854 17.9484 42.1974 16.391 42.5521C12.4182 43.4536 6.60748 50.97 5.41018 56.7419C4.67338 60.2893 11.4553 65.1848 11.4553 65.1848C11.7735 73.0183 7.81315 80.9228 8.36994 88.8566C8.9058 96.4689 21.8835 102.583 21.243 105.208C8.77183 156.458 8.80951 186.181 15.0849 203.81C15.0849 203.81 -3.49005 251.934 0.541428 261.641C15.9975 263.478 30.2521 267.559 45.9007 268.603C49.7187 259.179 56.7979 233.9 67.7871 227.991C74.6946 229.431 62.9602 258.787 58.2087 270.272C71.2576 270.848 101.835 264.4 101.412 264.225C121.08 263.661 118.831 196.698 118.831 196.698C121.084 164.133 113.042 135.666 92.1601 100.137L92.1559 100.142Z" fill="#66B1FF"/>
<path d="M169.809 73.5252C156.057 80.8079 152.875 84.8436 152.875 84.8436C149.279 81.4965 140.907 76.2755 136.569 79.5141C127.184 86.5171 140.3 94.5677 144.059 98.3196C141.02 143.259 92.1562 100.82 92.1562 100.82L109.642 147.023C146.245 170.137 161.391 162.992 182.9 114.145C182.9 114.145 195.488 113.085 195.112 104.521C194.886 99.4465 191.959 98.015 191.959 98.015C191.959 98.015 194.212 93.8499 192.072 88.704C189.895 83.4705 182.854 84.0548 182.854 84.0548C182.854 84.0548 201.383 77.3982 196.74 67.9703C193.316 61.0174 173.715 71.4594 169.813 73.5252H169.809Z" fill="#66B1FF"/>
<path d="M77.7228 67.5205C75.0142 62.5458 54.9992 67.0281 55.0243 67.1491C54.9992 67.0322 34.62 70.8259 33.8287 76.8524C33.3473 80.5208 32.2672 87.6324 34.8293 91.5262C37.6634 95.8332 54.9155 102.436 62.4174 100.695C69.6599 99.0885 79.6109 87.2025 80.2974 82.0984C80.917 77.4825 79.4937 70.7717 77.7186 67.5164L77.7228 67.5205Z" fill="white"/>
<path d="M33.0663 53.4655C34.0668 52.4388 37.6043 49.5967 44.7923 50.9323C46.2826 51.2077 47.9153 53.6533 45.8012 55.3895C43.955 56.9044 35.1846 57.8476 33.7235 57.3677C32.229 56.8752 31.7099 54.8511 33.0663 53.4613V53.4655Z" fill="#0073E4"/>
<path d="M66.9646 39.4823C65.6375 38.7269 61.2251 36.853 54.8451 40.3754C53.5222 41.1058 52.844 44.1106 55.494 45.2667C57.809 46.2766 66.5292 44.6323 67.7517 43.7016C69.0034 42.7459 68.7648 40.509 66.9646 39.4865V39.4823Z" fill="#0073E4"/>
<path d="M56.0906 68.3675C56.0906 68.3675 43.3431 71.0134 44.6576 74.8989C45.9721 78.7843 55.6259 83.4544 59.088 82.7366C63.7977 81.518 69.5372 73.9014 69.1855 69.8115C68.8339 65.7257 56.0906 68.3675 56.0906 68.3675Z" fill="#0073E4"/>
<path d="M48.3681 63.8822C45.739 61.4575 41.3601 59.5627 38.1952 62.0835C36.6211 63.3355 35.7545 65.2762 35.1601 67.1459C34.8963 67.9722 36.1983 68.3269 36.462 67.5048C37.2239 65.1009 38.6975 62.263 41.561 62.2129C43.3402 62.1837 45.0399 63.0684 46.4758 64.0867C46.84 64.3455 47.0284 64.4748 47.4178 64.8338C48.0541 65.4222 49.0086 64.4707 48.3722 63.8822H48.3681Z" fill="#0073E4"/>
<path d="M64.2172 63.2465C67.3963 63.2465 69.9735 60.6773 69.9735 57.508C69.9735 54.3387 67.3963 51.7695 64.2172 51.7695C61.0381 51.7695 58.4609 54.3387 58.4609 57.508C58.4609 60.6773 61.0381 63.2465 64.2172 63.2465Z" fill="white"/>
<path d="M64.213 61.2622C66.2939 61.2622 67.9808 59.5805 67.9808 57.5061C67.9808 55.4317 66.2939 53.75 64.213 53.75C62.1322 53.75 60.4453 55.4317 60.4453 57.5061C60.4453 59.5805 62.1322 61.2622 64.213 61.2622Z" fill="#3B3B3B"/>
<path d="M57.5781 65.8739L57.6074 63.495C57.6074 63.495 58.4656 61.1746 63.7739 60.3316C67.5375 59.7348 70.5894 61.546 70.5894 61.546L70.8489 64.8347L57.5781 65.8698V65.8739Z" fill="#66B1FF"/>
<path d="M67.1662 85.0898C64.4157 83.1325 58.6511 86.7926 55.302 86.3251C51.0737 85.7367 44.4551 78.8881 40.4152 80.2695C38.096 81.0625 36.5722 86.6883 37.5518 88.9252C39.5905 93.5703 49.1983 96.308 54.2847 96.308C57.1524 96.308 62.5318 95.4149 64.8636 93.0862C66.4796 91.4752 69.0249 86.4086 67.1662 85.0856V85.0898Z" fill="white"/>
<path d="M54.2825 96.9324C49.4305 96.9324 39.2116 94.2698 36.976 89.174C36.235 87.4879 36.7374 84.5999 37.6124 82.6133C38.098 81.5115 38.9436 80.1092 40.2121 79.6752C42.837 78.7737 46.1861 80.8313 49.4221 82.8178C51.5488 84.1241 53.7466 85.4721 55.3877 85.7016C56.6603 85.8769 58.4647 85.3553 60.2104 84.8503C62.9022 84.0699 65.682 83.2644 67.5282 84.5748C67.8966 84.8336 68.3487 85.3511 68.4282 86.3277C68.6166 88.5938 66.6741 92.1621 65.3052 93.5269C62.8185 96.0059 57.2255 96.9324 54.2825 96.9324ZM41.5894 80.7102C41.2461 80.7102 40.9196 80.7561 40.6182 80.8605C39.9735 81.0816 39.2953 81.9038 38.7594 83.1183C37.897 85.0756 37.6166 87.5171 38.1273 88.6731C39.9735 92.8841 49.0746 95.6804 54.2825 95.6804C57.2255 95.6804 62.3161 94.7372 64.4177 92.6421C65.615 91.4485 67.3272 88.1932 67.1807 86.432C67.1472 86.0272 67.0216 85.7517 66.7997 85.5973C65.4475 84.6374 62.965 85.3595 60.562 86.0522C58.6028 86.6198 56.7524 87.1582 55.216 86.9412C53.3113 86.6783 51.105 85.3219 48.7649 83.882C46.2154 82.317 43.5905 80.706 41.5936 80.706L41.5894 80.7102Z" fill="#0073E4"/>
<path d="M41.2523 92.9235C41.1518 92.9235 41.0513 92.8985 40.955 92.8484C40.6494 92.6856 40.5364 92.3059 40.6997 92.0012L46.054 82.0517C46.2173 81.747 46.5983 81.6343 46.9039 81.7971C47.2095 81.9599 47.3225 82.3397 47.1592 82.6443L41.8049 92.5938C41.6918 92.8025 41.4742 92.9235 41.2523 92.9235Z" fill="#0073E4"/>
<path d="M50.2906 96.181C50.2446 96.181 50.1985 96.1768 50.1525 96.1643C49.8134 96.0892 49.604 95.7511 49.6794 95.4173L51.9149 85.5429C51.9903 85.2048 52.3252 84.992 52.6643 85.0713C53.0034 85.1464 53.2127 85.4845 53.1373 85.8183L50.9018 95.6927C50.8348 95.9849 50.5753 96.181 50.2906 96.181Z" fill="#0073E4"/>
<path d="M61.5963 95.2543C61.2823 95.2543 61.0102 95.0164 60.9725 94.6993L59.9804 85.9935C59.9427 85.6512 60.1897 85.3382 60.533 85.3007C60.8762 85.2631 61.1902 85.5093 61.2279 85.8515L62.2201 94.5574C62.2577 94.8996 62.0107 95.2126 61.6675 95.2501C61.6423 95.2501 61.6214 95.2501 61.5963 95.2501V95.2543Z" fill="#0073E4"/>
<path d="M17.6797 63.2441L84.7495 45.582L83.8955 49.7931L77.7583 51.7671C77.7583 51.7671 80.8143 63.1439 68.5441 65.8733C57.5758 68.3148 54.9342 57.564 54.9342 57.564L50.3083 58.6783C50.3083 58.6783 53.5611 69.5919 42.2453 72.5926C29.8285 75.8813 27.2958 65.1806 27.2958 65.1806L19.7226 67.5302L17.6839 63.2441H17.6797Z" fill="#333238"/>
<path d="M24.5938 69.5535L26.4274 69.2572C27.9303 69.0152 29.1318 67.9509 29.4667 66.5612L30.3165 63.043L31.137 66.653C31.4468 68.0093 32.573 69.0736 34.0173 69.3741L36.123 69.8123L33.4856 70.4341C32.3134 70.7096 31.4092 71.586 31.158 72.692L30.3207 76.3646L29.6006 73.005C29.3034 71.6236 28.2024 70.5092 26.7539 70.1253L24.5979 69.5535H24.5938Z" fill="white"/>
<path d="M71.6484 48.2505L72.6155 48.1003C73.4067 47.975 74.0388 47.4242 74.2147 46.7063L74.6626 44.8867L75.0938 46.7522C75.2571 47.4534 75.8474 48.0043 76.6093 48.1587L77.7187 48.3841L76.3288 48.7054C75.7092 48.8473 75.2362 49.3022 75.1022 49.874L74.6626 51.7729L74.2817 50.0367C74.1268 49.3231 73.5449 48.7472 72.7829 48.5468L71.6484 48.2505Z" fill="white"/>
<path opacity="0.5" d="M63.4868 66.0708C63.3529 65.9497 68.7073 49.7818 68.7073 49.7818L71.6419 48.9805L65.1698 66.2335C65.1698 66.2335 63.8343 66.3879 63.4868 66.0708Z" fill="white"/>
<path opacity="0.5" d="M67.9812 66.1612L67.3281 66.1362L73.5449 48.5284L74.311 48.3281L67.9812 66.1612Z" fill="white"/>
<path d="M169.809 73.3143C156.057 80.5969 152.875 84.6327 152.875 84.6327C149.279 81.2856 140.907 76.0646 136.569 79.3032C127.184 86.3062 140.3 94.3568 144.059 98.1087C141.02 143.048 92.1562 100.609 92.1562 100.609L114.27 143.244C146.941 168.222 158.025 167.198 182.9 113.934C182.9 113.934 195.488 112.874 195.112 104.31C194.886 99.2356 191.959 97.804 191.959 97.804C191.959 97.804 194.212 93.639 192.072 88.4931C189.895 83.2596 182.854 83.8439 182.854 83.8439C182.854 83.8439 201.383 77.1872 196.74 67.7594C193.316 60.8064 173.715 71.2484 169.813 73.3143H169.809Z" fill="url(#paint2_linear_215_8147)"/>
<path d="M163.573 95.4414C163.573 95.4414 171.654 91.4803 175.414 93.617C182.937 98.8415 180.294 112.134 164.938 111.569C159.534 111.369 154.894 109.408 153.244 101.959C152.26 96.5195 155.956 92.5194 163.573 95.4414Z" fill="#66B1FF"/>
<path d="M169.809 73.3143C156.056 80.5969 152.875 84.6327 152.875 84.6327C149.279 81.2856 140.906 76.0646 136.569 79.3032C127.183 86.3062 140.299 94.3568 144.058 98.1087C141.019 143.048 150.195 88.4931 150.195 88.4931L167.889 92.0221C166.785 97.3472 164.994 99.078 170.785 103.568C165.637 114.473 175.611 116.076 182.899 113.934C182.899 113.934 195.488 112.874 195.111 104.31C194.885 99.2356 191.959 97.804 191.959 97.804C191.959 97.804 194.211 93.639 192.072 88.4931C189.895 83.2596 182.853 83.8439 182.853 83.8439C182.853 83.8439 201.382 77.1872 196.74 67.7594C193.315 60.8064 173.715 71.2484 169.813 73.3143H169.809Z" fill="url(#paint3_linear_215_8147)"/>
<path d="M175.886 115.781C175.886 115.781 175.848 115.781 175.831 115.781C175.614 115.765 170.464 115.281 169.058 111.124C167.831 107.501 168.869 105.294 169.426 104.108C169.523 103.908 169.636 103.666 169.677 103.524C166.663 100.807 165.407 98.0819 165.939 95.4276C167.061 89.8185 175.794 86.7302 176.162 86.605C176.489 86.4923 176.849 86.6634 176.962 86.9889C177.075 87.3144 176.903 87.6733 176.577 87.786C176.493 87.8152 168.149 90.7701 167.17 95.6738C166.726 97.8899 167.886 100.248 170.611 102.677C171.231 103.228 170.875 103.979 170.565 104.638C170.05 105.736 169.188 107.572 170.251 110.719C171.398 114.108 175.894 114.525 175.94 114.529C176.288 114.559 176.543 114.863 176.514 115.206C176.484 115.531 176.212 115.777 175.89 115.777L175.886 115.781Z" fill="#0073E4"/>
<path d="M173.944 104.375C171.575 104.375 170.072 103.774 169.95 103.724C169.628 103.59 169.477 103.223 169.611 102.906C169.745 102.589 170.11 102.434 170.432 102.568C170.507 102.597 175.845 104.68 182.355 100.414C182.644 100.226 183.033 100.306 183.225 100.594C183.418 100.882 183.334 101.27 183.045 101.462C179.504 103.782 176.301 104.379 173.948 104.379L173.944 104.375Z" fill="#0073E4"/>
</g>
<path d="M56.4858 0L57.2273 9.74438L66.9717 10.4858L57.2273 11.2273L56.4858 20.9717L55.7444 11.2273L46 10.4858L55.7444 9.74438L56.4858 0Z" fill="url(#paint4_radial_215_8147)"/>
<path d="M56.4858 0L57.2273 9.74438L66.9717 10.4858L57.2273 11.2273L56.4858 20.9717L55.7444 11.2273L46 10.4858L55.7444 9.74438L56.4858 0Z" fill="url(#paint5_radial_215_8147)"/>
<path d="M56.4858 0L57.2273 9.74438L66.9717 10.4858L57.2273 11.2273L56.4858 20.9717L55.7444 11.2273L46 10.4858L55.7444 9.74438L56.4858 0Z" fill="url(#paint6_radial_215_8147)"/>
<g clip-path="url(#clip3_215_8147)">
<path d="M325.761 70.1992L324.729 83.7581L311.17 84.7898L324.729 85.8215L325.761 99.3803L326.793 85.8215L340.352 84.7898L326.793 83.7581L325.761 70.1992Z" fill="url(#paint7_radial_215_8147)"/>
<path d="M325.761 70.1992L324.729 83.7581L311.17 84.7898L324.729 85.8215L325.761 99.3803L326.793 85.8215L340.352 84.7898L326.793 83.7581L325.761 70.1992Z" fill="url(#paint8_radial_215_8147)"/>
<path fill-rule="evenodd" clip-rule="evenodd" d="M269.413 129.704L279.703 119.233C284.672 114.21 284.672 106.208 279.703 101.185C274.818 96.1622 266.817 96.1622 261.847 101.185L258.899 104.165L255.952 101.185C250.982 96.1622 242.981 96.1622 238.096 101.185C237.634 101.652 237.215 102.145 236.839 102.658L130.794 208.832L160.649 238.722L269.474 129.766L269.413 129.704Z" fill="url(#paint9_radial_215_8147)"/>
<path d="M238.096 119.233L250.477 131.833L258.899 140.346L267.322 131.833L279.703 119.233C284.672 114.21 284.672 106.208 279.703 101.185C274.818 96.1622 266.817 96.1622 261.847 101.185L258.899 104.165L255.952 101.185C250.982 96.1622 242.981 96.1622 238.096 101.185C233.127 106.208 233.127 114.21 238.096 119.233Z" fill="url(#paint10_radial_215_8147)"/>
</g>
<defs>
<linearGradient id="paint0_linear_215_8147" x1="187.514" y1="77.269" x2="120.2" y2="157.975" gradientUnits="userSpaceOnUse">
<stop stop-color="#0F8AEF"/>
<stop offset="0.3" stop-color="#2B96F4"/>
<stop offset="0.83" stop-color="#66B1FF"/>
</linearGradient>
<linearGradient id="paint1_linear_215_8147" x1="187.514" y1="77.269" x2="120.2" y2="157.975" gradientUnits="userSpaceOnUse">
<stop stop-color="#0F8AEF"/>
<stop offset="0.3" stop-color="#2B96F4"/>
<stop offset="0.83" stop-color="#66B1FF"/>
</linearGradient>
<linearGradient id="paint2_linear_215_8147" x1="187.514" y1="77.269" x2="120.2" y2="157.975" gradientUnits="userSpaceOnUse">
<stop stop-color="#0F8AEF"/>
<stop offset="0.3" stop-color="#2B96F4"/>
<stop offset="0.83" stop-color="#66B1FF"/>
</linearGradient>
<linearGradient id="paint3_linear_215_8147" x1="187.514" y1="77.269" x2="120.2" y2="157.975" gradientUnits="userSpaceOnUse">
<stop stop-color="#0F8AEF"/>
<stop offset="0.3" stop-color="#2B96F4"/>
<stop offset="0.83" stop-color="#66B1FF"/>
</linearGradient>
<radialGradient id="paint4_radial_215_8147" cx="0" cy="0" r="1" gradientUnits="userSpaceOnUse" gradientTransform="translate(50.2829 2.01651) rotate(49.4615) scale(20.5537 28.3843)">
<stop stop-color="#FF00D6"/>
<stop offset="0.562168" stop-color="#FF004D"/>
<stop offset="1" stop-color="#FF6291"/>
</radialGradient>
<radialGradient id="paint5_radial_215_8147" cx="0" cy="0" r="1" gradientUnits="userSpaceOnUse" gradientTransform="translate(56.4899 4.12046) rotate(136.73) scale(13.837 17.4184)">
<stop stop-color="#FFE7AB"/>
<stop offset="1" stop-color="#FABC22"/>
</radialGradient>
<radialGradient id="paint6_radial_215_8147" cx="0" cy="0" r="1" gradientUnits="userSpaceOnUse" gradientTransform="translate(56.4899 4.12046) rotate(136.73) scale(13.837 17.4184)">
<stop stop-color="#ADFFEE"/>
<stop offset="1" stop-color="#2DF9FF"/>
</radialGradient>
<radialGradient id="paint7_radial_215_8147" cx="0" cy="0" r="1" gradientUnits="userSpaceOnUse" gradientTransform="translate(334.392 73.0051) rotate(130.538) scale(28.5995 39.4954)">
<stop stop-color="#FF00D6"/>
<stop offset="0.562168" stop-color="#FF004D"/>
<stop offset="1" stop-color="#FF6291"/>
</radialGradient>
<radialGradient id="paint8_radial_215_8147" cx="0" cy="0" r="1" gradientUnits="userSpaceOnUse" gradientTransform="translate(325.755 75.9326) rotate(43.2703) scale(19.2535 24.2369)">
<stop stop-color="#FFE7AB"/>
<stop offset="1" stop-color="#FABC22"/>
</radialGradient>
<radialGradient id="paint9_radial_215_8147" cx="0" cy="0" r="1" gradientUnits="userSpaceOnUse" gradientTransform="translate(277.055 93.7959) rotate(135.023) scale(153.292 214.224)">
<stop stop-color="#00F1FF" stop-opacity="0.92"/>
<stop offset="0.562168" stop-color="#00FFB1" stop-opacity="0.1"/>
<stop offset="1" stop-color="#00C4FF" stop-opacity="0"/>
</radialGradient>
<radialGradient id="paint10_radial_215_8147" cx="0" cy="0" r="1" gradientUnits="userSpaceOnUse" gradientTransform="translate(273.41 101.546) rotate(134.346) scale(44.7101 62.4839)">
<stop stop-color="#F7EB02"/>
<stop offset="0.562168" stop-color="#00FF76"/>
<stop offset="1" stop-color="#00C4FF"/>
</radialGradient>
<clipPath id="clip0_215_8147">
<rect width="198" height="137" rx="14.58" transform="matrix(-1 0 0 1 200 27.3672)" fill="white"/>
</clipPath>
<clipPath id="clip1_215_8147">
<rect width="21" height="102" fill="white" transform="translate(2 108.367)"/>
</clipPath>
<clipPath id="clip2_215_8147">
<rect width="199.963" height="80.7399" rx="13.5824" transform="matrix(-1 0 0 1 199.961 27.1602)" fill="white"/>
</clipPath>
<clipPath id="clip3_215_8147">
<rect width="210" height="113" fill="white" transform="translate(130.641 69.7344)"/>
</clipPath>
</defs>
</svg>
